<?xml version="1.0" encoding="UTF-8"?>
<svg version="1.1" xmlns="http://www.w3.org/2000/svg" width="150" height="150">
<path d="M0 0 C4.35474509 1.54293999 6.54617818 4.92393727 9.1875 8.5 C9.63802734 9.09425781 10.08855469 9.68851563 10.55273438 10.30078125 C14.4142605 15.43018477 15.12100649 17.68928624 15.0625 24.125 C15.05347656 25.40632813 15.04445312 26.68765625 15.03515625 28.0078125 C15.02355469 28.99523437 15.01195312 29.98265625 15 31 C15.91652344 30.50371094 16.83304688 30.00742188 17.77734375 29.49609375 C21.80037466 27.62843213 23.75543322 27.84239088 28 29 C30.89676465 30.60931369 32.52554085 31.82919534 33.78515625 34.9375 C34.7446175 38.39410213 35.14679242 40.55962275 34 44 C31.36 43.01 28.72 42.02 26 41 C25.7215625 42.2375 25.7215625 42.2375 25.4375 43.5 C22.5946439 50.4217366 17.37725262 55.26697407 11 59 C11.226875 60.175625 11.45375 61.35125 11.6875 62.5625 C12.27400889 67.2797072 11.37838108 69.89934296 9 74 C6.37819911 75.88441939 5.26656076 76 2 76 C2 75.34 2 74.68 2 74 C0.02 74.495 0.02 74.495 -2 75 C-2 73.68 -2 72.36 -2 71 C-3.32 70.67 -4.64 70.34 -6 70 C-5.60167969 69.38253906 -5.20335938 68.76507813 -4.79296875 68.12890625 C-1.28798688 62.52605202 1.15747295 57.34648205 3 51 C-1.29 51 -5.58 51 -10 51 C-10 50.34 -10 49.68 -10 49 C-10.99 49.495 -10.99 49.495 -12 50 C-13.54023996 50.06950541 -15.08334988 50.08452357 -16.625 50.0625 C-17.85089844 50.04896484 -17.85089844 50.04896484 -19.1015625 50.03515625 C-19.72804688 50.02355469 -20.35453125 50.01195312 -21 50 C-21 47 -21 47 -19 45 C-19.60328125 45.02320313 -20.2065625 45.04640625 -20.828125 45.0703125 C-22.02695312 45.09738281 -22.02695312 45.09738281 -23.25 45.125 C-24.03890625 45.14820313 -24.8278125 45.17140625 -25.640625 45.1953125 C-28.20731941 44.9828378 -29.7916067 44.28654105 -32 43 C-32 42.34 -32 41.68 -32 41 C-29.03 39.68 -26.06 38.36 -23 37 C-23.84304687 36.82984375 -24.68609375 36.6596875 -25.5546875 36.484375 C-26.65039062 36.24203125 -27.74609375 35.9996875 -28.875 35.75 C-29.96554688 35.51796875 -31.05609375 35.2859375 -32.1796875 35.046875 C-35 34 -35 34 -37 30 C-34.03 29.34 -31.06 28.68 -28 28 C-28.5775 27.59007813 -29.155 27.18015625 -29.75 26.7578125 C-30.4925 26.21898438 -31.235 25.68015625 -32 25.125 C-33.11375 24.32449219 -33.11375 24.32449219 -34.25 23.5078125 C-35.11625 22.76144531 -35.11625 22.76144531 -36 22 C-36 21.34 -36 20.68 -36 20 C-32.7 19.67 -29.4 19.34 -26 19 C-26.804375 18.401875 -27.60875 17.80375 -28.4375 17.1875 C-31 15 -31 15 -32 12 C-28.9132509 10.97108363 -27.86065264 11.01052258 -24.76953125 11.55859375 C-23.96708984 11.69716797 -23.16464844 11.83574219 -22.33789062 11.97851562 C-21.50451172 12.12998047 -20.67113281 12.28144531 -19.8125 12.4375 C-18.96751953 12.58509766 -18.12253906 12.73269531 -17.25195312 12.88476562 C-15.1668109 13.24996003 -13.08324327 13.6241243 -11 14 C-11.33 12.02 -11.66 10.04 -12 8 C-10.02 8.66 -8.04 9.32 -6 10 C-6.33 8.02 -6.66 6.04 -7 4 C-3 4 -3 4 0 6 C0 4.02 0 2.04 0 0 Z " fill="#2184AD" transform="translate(76,37)"/>
<path d="M0 0 C2.89676465 1.60931369 4.52554085 2.82919534 5.78515625 5.9375 C6.7446175 9.39410213 7.14679242 11.55962275 6 15 C3.36 14.01 0.72 13.02 -2 12 C-2.185625 12.825 -2.37125 13.65 -2.5625 14.5 C-5.4053561 21.4217366 -10.62274738 26.26697407 -17 30 C-16.773125 31.175625 -16.54625 32.35125 -16.3125 33.5625 C-15.72599111 38.2797072 -16.62161892 40.89934296 -19 45 C-21.62180089 46.88441939 -22.73343924 47 -26 47 C-26 46.34 -26 45.68 -26 45 C-27.98 45.495 -27.98 45.495 -30 46 C-30 44.68 -30 43.36 -30 42 C-31.32 41.67 -32.64 41.34 -34 41 C-33.43732422 40.12601563 -33.43732422 40.12601563 -32.86328125 39.234375 C-29.92453423 34.52645785 -27.46751828 29.92202109 -25.4375 24.75 C-23.54831056 19.99022401 -21.56016921 16.66188833 -18 13 C-18.99 12.67 -19.98 12.34 -21 12 C-19 9 -19 9 -17 8.125 C-14.75301596 7.14834654 -14.75301596 7.14834654 -14.125 4.5625 C-13 2 -13 2 -10.3125 0.125 C-6.29193814 -1.24047384 -4.08389018 -1.11378823 0 0 Z " fill="#1F338B" transform="translate(104,66)"/>
<path d="M0 0 C4.95 0 9.9 0 15 0 C16.32 2.64 17.64 5.28 19 8 C20.65 8 22.3 8 24 8 C24.495 8.99 24.495 8.99 25 10 C27.52733235 10.65555119 27.52733235 10.65555119 30 11 C30.495 12.485 30.495 12.485 31 14 C31.66 14.66 32.32 15.32 33 16 C31.35 16.66 29.7 17.32 28 18 C28.66 19.32 29.32 20.64 30 22 C25.25 27.75 25.25 27.75 23 30 C20.9918674 29.71979545 18.9924325 29.37593066 17 29 C14.66697011 28.96237049 12.33286681 28.95334266 10 29 C10 28.34 10 27.68 10 27 C9.34 27.33 8.68 27.66 8 28 C6.45976004 28.06950541 4.91665012 28.08452357 3.375 28.0625 C2.14910156 28.04896484 2.14910156 28.04896484 0.8984375 28.03515625 C0.27195312 28.02355469 -0.35453125 28.01195313 -1 28 C-1 25 -1 25 1 23 C0.39671875 23.02320312 -0.2065625 23.04640625 -0.828125 23.0703125 C-2.02695312 23.09738281 -2.02695312 23.09738281 -3.25 23.125 C-4.43335938 23.15980469 -4.43335938 23.15980469 -5.640625 23.1953125 C-8.20731941 22.9828378 -9.7916067 22.28654105 -12 21 C-12 20.34 -12 19.68 -12 19 C-6.38476562 16.75390625 -6.38476562 16.75390625 -0.76953125 14.5078125 C-0.1245166 14.24774414 0.52049805 13.98767578 1.18505859 13.71972656 C2.75524166 13.09706048 4.33945629 12.50999864 5.92578125 11.9296875 C8.17065813 11.18641677 8.17065813 11.18641677 9 9 C7.68 9 6.36 9 5 9 C6 7 7 5 8 3 C5.36 2.67 2.72 2.34 0 2 C0 1.34 0 0.68 0 0 Z " fill="#03897E" transform="translate(56,59)"/>
<path d="M0 0 C5.85512597 0.34733798 11.32715996 0.6756683 16 4.375 C16.66 5.24125 17.32 6.1075 18 7 C19.64864545 8.35555293 21.31003995 9.69631653 23 11 C19.04 11 15.08 11 11 11 C11 11.66 11 12.32 11 13 C13.64 13.33 16.28 13.66 19 14 C17.5 17 17.5 17 16 20 C17.32 20 18.64 20 20 20 C19 23 19 23 17.3203125 24.01953125 C10.77961851 26.38209509 5.62657233 25.99532289 -1 24 C-4.1875 22.5 -4.1875 22.5 -6 21 C-6 20.34 -6 19.68 -6 19 C-3.03 18.34 -0.06 17.68 3 17 C2.4225 16.59007813 1.845 16.18015625 1.25 15.7578125 C0.5075 15.21898437 -0.235 14.68015625 -1 14.125 C-2.11375 13.32449219 -2.11375 13.32449219 -3.25 12.5078125 C-4.11625 11.76144531 -4.11625 11.76144531 -5 11 C-5 10.34 -5 9.68 -5 9 C-1.7 8.67 1.6 8.34 5 8 C4.195625 7.401875 3.39125 6.80375 2.5625 6.1875 C0 4 0 4 -1 1 C-0.67 0.67 -0.34 0.34 0 0 Z " fill="#91C783" transform="translate(45,48)"/>
<path d="M0 0 C2.89676465 1.60931369 4.52554085 2.82919534 5.78515625 5.9375 C6.7446175 9.39410213 7.14679242 11.55962275 6 15 C3.36 14.01 0.72 13.02 -2 12 C-2.33 12.66 -2.66 13.32 -3 14 C-3 13.34 -3 12.68 -3 12 C-3.61488281 11.80664062 -4.22976562 11.61328125 -4.86328125 11.4140625 C-5.67152344 11.15367188 -6.47976562 10.89328125 -7.3125 10.625 C-8.51326172 10.24214844 -8.51326172 10.24214844 -9.73828125 9.8515625 C-12 9 -12 9 -15 7 C-14.06117241 3.52633793 -13.30769804 2.21467305 -10.3125 0.125 C-6.29193814 -1.24047384 -4.08389018 -1.11378823 0 0 Z " fill="#A325BE" transform="translate(104,66)"/>
<path d="M0 0 C0.91058531 3.07322544 1.08886184 5.80097361 1 9 C3.31 7.68 5.62 6.36 8 5 C10.54464286 12.63392857 10.54464286 12.63392857 8.875 16.875 C7.03854232 19.9357628 6.36684206 21.05307567 3 22 C2.01 22 1.02 22 0 22 C0 21.34 0 20.68 0 20 C-1.32 20.33 -2.64 20.66 -4 21 C-4 19.68 -4 18.36 -4 17 C-5.32 16.67 -6.64 16.34 -8 16 C-7.59007813 15.34773438 -7.18015625 14.69546875 -6.7578125 14.0234375 C-3.94000791 9.45293149 -1.3796851 5.24280337 0 0 Z " fill="#FDB17D" transform="translate(78,91)"/>
<path d="M0 0 C0.66 0.33 1.32 0.66 2 1 C1.67 1.66 1.34 2.32 1 3 C2.32 3 3.64 3 5 3 C5 3.99 5 4.98 5 6 C6.32 6.33 7.64 6.66 9 7 C8.67 7.66 8.34 8.32 8 9 C11.72650092 9.76223883 14.35202386 10.08088182 18 9 C18.33 9.33 18.66 9.66 19 10 C20.69141656 9.91036938 22.37959602 9.75422324 24.0625 9.5625 C24.98160156 9.46066406 25.90070313 9.35882813 26.84765625 9.25390625 C27.55792969 9.17011719 28.26820312 9.08632812 29 9 C28.34 10.98 27.68 12.96 27 15 C25.989375 14.835 24.97875 14.67 23.9375 14.5 C20.23737067 14.03014231 16.72392609 13.92400151 13 14 C13 13.34 13 12.68 13 12 C12.01 12.495 12.01 12.495 11 13 C9.45976004 13.06950541 7.91665012 13.08452357 6.375 13.0625 C5.14910156 13.04896484 5.14910156 13.04896484 3.8984375 13.03515625 C2.95871094 13.01775391 2.95871094 13.01775391 2 13 C2 10 2 10 4 8 C3.09507813 8.03480469 3.09507813 8.03480469 2.171875 8.0703125 C0.97304688 8.09738281 0.97304688 8.09738281 -0.25 8.125 C-1.03890625 8.14820312 -1.8278125 8.17140625 -2.640625 8.1953125 C-5.20731941 7.9828378 -6.7916067 7.28654105 -9 6 C-9 5.34 -9 4.68 -9 4 C-7.54618103 3.30300448 -6.08677047 2.61766134 -4.625 1.9375 C-3.40683594 1.36322266 -3.40683594 1.36322266 -2.1640625 0.77734375 C-1.44992188 0.52082031 -0.73578125 0.26429687 0 0 Z " fill="#73BC8D" transform="translate(53,74)"/>
<path d="M0 0 C2.97 0.33 5.94 0.66 9 1 C8 3 7 5 6 7 C7.32 7 8.64 7 10 7 C9 10 9 10 7.3203125 11.01953125 C0.77961851 13.38209509 -4.37342767 12.99532289 -11 11 C-14.1875 9.5 -14.1875 9.5 -16 8 C-16 7.34 -16 6.68 -16 6 C-12.828262 4.414131 -9.36486178 4.62133555 -5.875 4.4375 C-5.12089844 4.39431641 -4.36679687 4.35113281 -3.58984375 4.30664062 C-1.72678112 4.2005168 0.13658524 4.09974999 2 4 C2 3.01 2 2.02 2 1 C1.34 0.67 0.68 0.34 0 0 Z " fill="#319F77" transform="translate(55,61)"/>
<path d="M0 0 C3.94139078 1.66751148 6.7892812 4.22710649 10 7 C9.25 8.9375 9.25 8.9375 8 11 C5.04241562 11.99679119 2.03392226 12.26826983 -1.0625 12.5625 C-1.91972656 12.64628906 -2.77695313 12.73007813 -3.66015625 12.81640625 C-7.96430256 13.15412725 -10.94519674 12.44170782 -15 11 C-13.64957529 6.94872587 -11.10324614 6.18044817 -7.5 4.375 C-3.49261597 2.54664539 -3.49261597 2.54664539 0 0 Z " fill="#09887B" transform="translate(76,72)"/>
<path d="M0 0 C0.99 0 1.98 0 3 0 C6.58166465 8.37745292 6.04217632 15.24781579 4 24 C0.13709918 20.56631038 -1.86615781 17.47277161 -4.01953125 12.796875 C-5.25979131 10.52388844 -6.8447864 9.38549446 -9 8 C-9 7.34 -9 6.68 -9 6 C-4.25 7.875 -4.25 7.875 -2 9 C-2.66 7.35 -3.32 5.7 -4 4 C-3.01 3.67 -2.02 3.34 -1 3 C-0.67 2.01 -0.34 1.02 0 0 Z " fill="#25815F" transform="translate(80,44)"/>
<path d="M0 0 C0.33 0.66 0.66 1.32 1 2 C3.52733235 2.65555119 3.52733235 2.65555119 6 3 C6.495 4.485 6.495 4.485 7 6 C7.66 6.66 8.32 7.32 9 8 C6.69 8.66 4.38 9.32 2 10 C0.68 8.68 -0.64 7.36 -2 6 C-4.1461421 7.05823597 -6.26542395 8.14453779 -8.3671875 9.2890625 C-16.65383191 13.70344317 -16.65383191 13.70344317 -22 13 C-22 12.01 -22 11.02 -22 10 C-23.32 10 -24.64 10 -26 10 C-25.67 9.01 -25.34 8.02 -25 7 C-24.01 7 -23.02 7 -22 7 C-22 7.66 -22 8.32 -22 9 C-20.53626953 8.47599609 -20.53626953 8.47599609 -19.04296875 7.94140625 C-17.75781853 7.48175398 -16.47266194 7.02211949 -15.1875 6.5625 C-14.22360352 6.21735352 -14.22360352 6.21735352 -13.24023438 5.86523438 C-10.50071717 4.88582149 -7.76013914 3.92004638 -5 3 C-5 2.34 -5 1.68 -5 1 C-3 0 -3 0 0 0 Z " fill="#02897E" transform="translate(80,67)"/>
<path d="M0 0 C-0.33 1.65 -0.66 3.3 -1 5 C-1.86882812 5.10957031 -2.73765625 5.21914062 -3.6328125 5.33203125 C-12.22856045 6.45696426 -12.22856045 6.45696426 -20 10 C-19.42647107 6.12867972 -17.51295648 3.91827204 -15 1 C-15.99 0.67 -16.98 0.34 -18 0 C-16 -3 -16 -3 -14.1875 -3.75 C-8.96836482 -4.34647259 -4.64466494 -2.09465282 0 0 Z " fill="#084B92" transform="translate(101,78)"/>
<path d="M0 0 C3.82946843 1.45255699 5.12050295 3.42895561 7 7 C6.01 7.33 5.02 7.66 4 8 C2.16666667 9.75 2.16666667 9.75 1 12 C1.21717352 14.20800528 1.21717352 14.20800528 2 16 C-2.75 14.125 -2.75 14.125 -5 13 C-4.34 14.32 -3.68 15.64 -3 17 C-5.375 16.6875 -5.375 16.6875 -8 16 C-8.66 15.01 -9.32 14.02 -10 13 C-9.67 12.01 -9.34 11.02 -9 10 C-7.02 10.495 -7.02 10.495 -5 11 C-5.66 8.69 -6.32 6.38 -7 4 C-3 4 -3 4 0 6 C0 4.02 0 2.04 0 0 Z " fill="#7DBF6E" transform="translate(76,37)"/>
<path d="M0 0 C1.98 0.66 3.96 1.32 6 2 C5.01 2.99 4.02 3.98 3 5 C4.73815974 8.35981224 4.73815974 8.35981224 8.4375 8.75 C12 10 12 10 14 13.4375 C15 17 15 17 14 20 C13.61585937 19.38125 13.23171875 18.7625 12.8359375 18.125 C10.58797844 15.52310696 8.88700787 15.00094488 5.625 14 C1.40535382 12.58041043 -1.8397248 11.26925021 -5 8 C-5 7.34 -5 6.68 -5 6 C-3.02 6 -1.04 6 1 6 C0.67 4.02 0.34 2.04 0 0 Z " fill="#51E8DC" transform="translate(64,45)"/>
<path d="M0 0 C-2.52704327 5.21202675 -6.61773359 8.3880132 -11 12 C-11.33 11.01 -11.66 10.02 -12 9 C-11.67 8.34 -11.34 7.68 -11 7 C-10.34 7 -9.68 7 -9 7 C-9 6.34 -9 5.68 -9 5 C-11.31 5 -13.62 5 -16 5 C-15 2 -15 2 -13.0625 0.8125 C-8.70065683 -0.3447237 -4.4860872 -0.15679528 0 0 Z " fill="#43349A" transform="translate(100,83)"/>
<path d="M0 0 C0.84062397 3.09773244 1.08935201 5.78332751 1 9 C2.32 8.01 3.64 7.02 5 6 C5.66 6.33 6.32 6.66 7 7 C6.67 8.65 6.34 10.3 6 12 C5.34 12 4.68 12 4 12 C3.67 12.99 3.34 13.98 3 15 C0.69 15 -1.62 15 -4 15 C-5 13 -5 13 -4.00390625 9.9609375 C-3.52824219 8.77757813 -3.05257812 7.59421875 -2.5625 6.375 C-2.08941406 5.18648438 -1.61632812 3.99796875 -1.12890625 2.7734375 C-0.75636719 1.85820313 -0.38382812 0.94296875 0 0 Z " fill="#F8789C" transform="translate(78,91)"/>
<path d="M0 0 C4.6531589 4.4016368 7.81048742 7.42010207 8.29296875 13.98828125 C8.27321944 15.42998091 8.23772113 16.87153998 8.1875 18.3125 C8.17396484 19.05306641 8.16042969 19.79363281 8.14648438 20.55664062 C8.11135979 22.37141075 8.05755972 24.18580288 8 26 C7.34 26 6.68 26 6 26 C5.90203125 25.24976562 5.8040625 24.49953125 5.703125 23.7265625 C4.78324531 17.43014459 3.45117068 11.95146864 0.8046875 6.15625 C0 4 0 4 0 0 Z " fill="#61EBE0" transform="translate(83,44)"/>
<path d="M0 0 C4.95 0 9.9 0 15 0 C15.66 1.65 16.32 3.3 17 5 C13.7 5.33 10.4 5.66 7 6 C7.33 5.01 7.66 4.02 8 3 C5.36 2.67 2.72 2.34 0 2 C0 1.34 0 0.68 0 0 Z " fill="#228766" transform="translate(56,59)"/>
<path d="M0 0 C0.99 0 1.98 0 3 0 C3.33 0.66 3.66 1.32 4 2 C6.52733235 2.65555119 6.52733235 2.65555119 9 3 C9.33 3.99 9.66 4.98 10 6 C10.66 6.66 11.32 7.32 12 8 C9.69 8.66 7.38 9.32 5 10 C2.69 7.36 0.38 4.72 -2 2 C-1.34 1.34 -0.68 0.68 0 0 Z " fill="#2192B3" transform="translate(77,67)"/>
<path d="M0 0 C1.73324119 -0.08461492 3.46392812 -0.23604355 5.1875 -0.4375 C6.08855469 -0.53933594 6.98960938 -0.64117187 7.91796875 -0.74609375 C8.60503906 -0.82988281 9.29210937 -0.91367188 10 -1 C9.34 0.98 8.68 2.96 8 5 C6.4840625 4.7525 6.4840625 4.7525 4.9375 4.5 C1.23737067 4.03014231 -2.27607391 3.92400151 -6 4 C-6.33 3.01 -6.66 2.02 -7 1 C-3.375 -1.125 -3.375 -1.125 0 0 Z " fill="#73B995" transform="translate(72,84)"/>
<path d="M0 0 C0.33 1.98 0.66 3.96 1 6 C3.97 6 6.94 6 10 6 C9.67 6.66 9.34 7.32 9 8 C6.93571843 7.74309819 4.87358906 7.46886954 2.8125 7.1875 C1.66394531 7.03667969 0.51539063 6.88585937 -0.66796875 6.73046875 C-4.04289862 5.9905955 -6.24222324 5.06184063 -9 3 C-9 2.34 -9 1.68 -9 1 C-6.04335481 -0.4783226 -3.25770263 -0.06032783 0 0 Z " fill="#A5D588" transform="translate(48,66)"/>
<path d="M0 0 C0 0.66 0 1.32 0 2 C-5.07442848 5.64724547 -10.7668975 8 -17 8 C-17.33 7.01 -17.66 6.02 -18 5 C-15.37605694 4.16320723 -12.75095616 3.33043058 -10.125 2.5 C-9.00544922 2.14228516 -9.00544922 2.14228516 -7.86328125 1.77734375 C-2.2265625 0 -2.2265625 0 0 0 Z " fill="#007267" transform="translate(75,68)"/>
<path d="M0 0 C1.65 1.65 3.3 3.3 5 5 C-0.94 4.34 -6.88 3.68 -13 3 C-8.58786322 -1.41213678 -5.93306598 -1.43211937 0 0 Z " fill="#E68ECA" transform="translate(104,66)"/>
<path d="M0 0 C2.375 0.3125 2.375 0.3125 5 1 C5.66 1.99 6.32 2.98 7 4 C7.99 4 8.98 4 10 4 C13 7.33333333 13 7.33333333 13 10 C11.68 9.67 10.36 9.34 9 9 C9 8.34 9 7.68 9 7 C7.35 7.33 5.7 7.66 4 8 C2.68 5.36 1.36 2.72 0 0 Z " fill="#32B8C6" transform="translate(71,60)"/>
<path d="M0 0 C2.66053508 2.66053508 2.78483954 4.27055195 3 8 C1.5625 11.375 1.5625 11.375 0 14 C-0.66 14 -1.32 14 -2 14 C-2.33 11.69 -2.66 9.38 -3 7 C-2.34 7 -1.68 7 -1 7 C-1.20625 6.401875 -1.4125 5.80375 -1.625 5.1875 C-2 3 -2 3 0 0 Z " fill="#FCAD85" transform="translate(85,96)"/>
<path d="M0 0 C2.86328125 -0.36328125 2.86328125 -0.36328125 6.3125 -0.3125 C7.44300781 -0.30863281 8.57351562 -0.30476563 9.73828125 -0.30078125 C12.89449382 -0.00972931 15.1501454 0.65794839 18 2 C18 2.33 18 2.66 18 3 C11.4 3 4.8 3 -2 3 C-1.34 2.01 -0.68 1.02 0 0 Z " fill="#BE34C3" transform="translate(91,69)"/>
<path d="M0 0 C0.33 0.99 0.66 1.98 1 3 C3.01508358 3.73323796 3.01508358 3.73323796 5 4 C5 4.99 5 5.98 5 7 C2.03 7 -0.94 7 -4 7 C-4.33 5.02 -4.66 3.04 -5 1 C-3.35 0.67 -1.7 0.34 0 0 Z " fill="#5AAD6A" transform="translate(53,65)"/>
<path d="M0 0 C0.66 0.33 1.32 0.66 2 1 C-8.79452055 11 -8.79452055 11 -15 11 C-13.64957529 6.94872587 -11.10324614 6.18044817 -7.5 4.375 C-3.49261597 2.54664539 -3.49261597 2.54664539 0 0 Z " fill="#057669" transform="translate(76,72)"/>
<path d="M0 0 C3.40312738 1.05875074 6.01353231 2.00902154 9 4 C8.67 6.31 8.34 8.62 8 11 C4.31993178 7.61831569 2.0214155 4.57478244 0 0 Z " fill="#0B8E80" transform="translate(76,57)"/>
<path d="M0 0 C1.32 0 2.64 0 4 0 C4 0.99 4 1.98 4 3 C2.865625 3.12375 1.73125 3.2475 0.5625 3.375 C-1.2009375 3.684375 -1.2009375 3.684375 -3 4 C-3.33 4.66 -3.66 5.32 -4 6 C-4 5.34 -4 4.68 -4 4 C-6.31 3.34 -8.62 2.68 -11 2 C-11 1.67 -11 1.34 -11 1 C-10.28972656 1.01160156 -9.57945313 1.02320312 -8.84765625 1.03515625 C-7.92855469 1.04417969 -7.00945312 1.05320312 -6.0625 1.0625 C-4.68771484 1.07990234 -4.68771484 1.07990234 -3.28515625 1.09765625 C-1.03406673 1.25949049 -1.03406673 1.25949049 0 0 Z " fill="#9234B9" transform="translate(105,74)"/>
<path d="M0 0 C4.29 0.66 8.58 1.32 13 2 C13 2.33 13 2.66 13 3 C11.6078125 3.1546875 11.6078125 3.1546875 10.1875 3.3125 C6.96745642 4.0070192 5.97420135 4.47740939 4 7 C2.35 5.35 0.7 3.7 -1 2 C-0.67 1.34 -0.34 0.68 0 0 Z " fill="#CFEA7F" transform="translate(45,48)"/>
<path d="M0 0 C0.99 0 1.98 0 3 0 C3 0.66 3 1.32 3 2 C4.98 1.67 6.96 1.34 9 1 C9.5625 2.9375 9.5625 2.9375 10 5 C9 6 9 6 5.9375 6.0625 C4.968125 6.041875 3.99875 6.02125 3 6 C3 5.01 3 4.02 3 3 C1.68 3 0.36 3 -1 3 C-0.67 2.01 -0.34 1.02 0 0 Z " fill="#359E75" transform="translate(55,74)"/>
<path d="M0 0 C0.91007812 0.00902344 1.82015625 0.01804687 2.7578125 0.02734375 C3.45648438 0.03894531 4.15515625 0.05054687 4.875 0.0625 C2.125 4.9375 2.125 4.9375 -0.125 6.0625 C-0.723125 5.60875 -1.32125 5.155 -1.9375 4.6875 C-3.63090652 3.42954087 -5.36977086 2.23265276 -7.125 1.0625 C-4.60024538 -0.19987731 -2.81299534 -0.03606404 0 0 Z " fill="#6247A8" transform="translate(95.125,82.9375)"/>
<path d="M0 0 C3.82946843 1.45255699 5.12050295 3.42895561 7 7 C6.01 7.33 5.02 7.66 4 8 C3.34 8.66 2.68 9.32 2 10 C-0.09350689 6.5980513 -0.17942163 3.94727588 0 0 Z " fill="#D2EB94" transform="translate(76,37)"/>
<path d="M0 0 C1.65 0.33 3.3 0.66 5 1 C5.33 1.99 5.66 2.98 6 4 C3.69 5.32 1.38 6.64 -1 8 C-1.125 2.25 -1.125 2.25 0 0 Z " fill="#0B3883" transform="translate(79,93)"/>
<path d="M0 0 C2.01222063 0.50572625 3.98870408 1.14857844 5.95703125 1.8046875 C3.07683849 3.27120767 0.1639461 4.62516624 -2.79296875 5.9296875 C-3.5921875 6.28289062 -4.39140625 6.63609375 -5.21484375 7 C-5.818125 7.26554687 -6.42140625 7.53109375 -7.04296875 7.8046875 C-6.1723712 3.79824827 -4.9027684 -0.46871591 0 0 Z " fill="#033A81" transform="translate(88.04296875,80.1953125)"/>
<path d="M0 0 C0.33 1.65 0.66 3.3 1 5 C2.98 5 4.96 5 7 5 C7 5.33 7 5.66 7 6 C5.58376784 6.05447047 4.16691809 6.09300508 2.75 6.125 C1.96109375 6.14820312 1.1721875 6.17140625 0.359375 6.1953125 C-2.20731941 5.9828378 -3.7916067 5.28654105 -6 4 C-6 3.34 -6 2.68 -6 2 C-2.25 0 -2.25 0 0 0 Z " fill="#B4DC98" transform="translate(50,76)"/>
<path d="M0 0 C0.99 0 1.98 0 3 0 C3.99 3.63 4.98 7.26 6 11 C0.24303305 6.71289695 0.24303305 6.71289695 -0.9375 3.25 C-0.958125 2.5075 -0.97875 1.765 -1 1 C-0.67 0.67 -0.34 0.34 0 0 Z " fill="#67BD74" transform="translate(80,44)"/>
<path d="M0 0 C0.33 0.66 0.66 1.32 1 2 C3.31 2 5.62 2 8 2 C8 2.66 8 3.32 8 4 C7.07767578 4.09087891 7.07767578 4.09087891 6.13671875 4.18359375 C5.32847656 4.26738281 4.52023438 4.35117188 3.6875 4.4375 C2.88699219 4.51871094 2.08648437 4.59992188 1.26171875 4.68359375 C-1.16087179 4.95265693 -1.16087179 4.95265693 -4 6 C-3.67 4.35 -3.34 2.7 -3 1 C-2.01 0.67 -1.02 0.34 0 0 Z " fill="#323893" transform="translate(83,86)"/>
<path d="M0 0 C0.66 0.33 1.32 0.66 2 1 C1.67 1.66 1.34 2.32 1 3 C1.66 3 2.32 3 3 3 C3 4.32 3 5.64 3 7 C1.35 7 -0.3 7 -2 7 C-2.33 5.35 -2.66 3.7 -3 2 C-2.01 1.34 -1.02 0.68 0 0 Z " fill="#6BB872" transform="translate(53,74)"/>
<path d="M0 0 C0.91058531 3.07322544 1.08886184 5.80097361 1 9 C1.66 8.67 2.32 8.34 3 8 C3 8.99 3 9.98 3 11 C0.69 11 -1.62 11 -4 11 C-3.71125 10.29875 -3.4225 9.5975 -3.125 8.875 C-1.97866412 5.94547497 -0.97374346 2.99078347 0 0 Z " fill="#E77FC6" transform="translate(78,91)"/>
<path d="M0 0 C0.680625 0.391875 1.36125 0.78375 2.0625 1.1875 C2.805 1.55875 3.5475 1.93 4.3125 2.3125 C4.89 2.60125 5.4675 2.89 6.0625 3.1875 C3.7525 3.8475 1.4425 4.5075 -0.9375 5.1875 C-2.2575 3.5375 -3.5775 1.8875 -4.9375 0.1875 C-1.9375 -0.8125 -1.9375 -0.8125 0 0 Z " fill="#1271A3" transform="translate(82.9375,71.8125)"/>
<path d="M0 0 C4.75 1.875 4.75 1.875 7 3 C7.33 2.34 7.66 1.68 8 1 C8.66 2.32 9.32 3.64 10 5 C8.68 5 7.36 5 6 5 C5.67 5.66 5.34 6.32 5 7 C3.29115995 5.37660195 1.62553283 3.70680947 0 2 C0 1.34 0 0.68 0 0 Z " fill="#419D69" transform="translate(71,50)"/>
<path d="M0 0 C0 0.66 0 1.32 0 2 C-4.26616316 3.13764351 -7.56486311 4 -12 4 C-11.67 3.01 -11.34 2.02 -11 1 C-7.26513121 0.4254048 -3.78706732 0 0 0 Z " fill="#097665" transform="translate(73,64)"/>
<path d="M0 0 C0.78375 0.04125 1.5675 0.0825 2.375 0.125 C2.375 0.785 2.375 1.445 2.375 2.125 C3.035 2.455 3.695 2.785 4.375 3.125 C1.72761084 4.5856285 0.48051666 5.125 -2.625 5.125 C-2.625 4.465 -2.625 3.805 -2.625 3.125 C-3.285 2.795 -3.945 2.465 -4.625 2.125 C-2.625 0.125 -2.625 0.125 0 0 Z " fill="#FEE1AD" transform="translate(80.625,107.875)"/>
<path d="M0 0 C-0.66 0.66 -1.32 1.32 -2 2 C-1.6814823 4.10820797 -1.6814823 4.10820797 -1 6 C-3.9375 5.1875 -3.9375 5.1875 -7 4 C-7.33 3.01 -7.66 2.02 -8 1 C-5.29120665 -0.35439668 -2.99066732 -0.06501451 0 0 Z " fill="#D3EB9F" transform="translate(47,66)"/>
<path d="M0 0 C2.58926331 2.58926331 2.37398043 4.02705279 2.625 7.625 C2.69976562 8.62789062 2.77453125 9.63078125 2.8515625 10.6640625 C2.90054688 11.43492188 2.94953125 12.20578125 3 13 C1 10 1 10 1 8 C0.34 8 -0.32 8 -1 8 C-0.67 5.36 -0.34 2.72 0 0 Z " fill="#2FB4C2" transform="translate(86,56)"/>
<path d="M0 0 C2.96 4.44 2.96 4.44 4 7 C3.67 7.99 3.34 8.98 3 10 C2.5875 9.38125 2.175 8.7625 1.75 8.125 C-0.05573879 5.93231719 -1.4090534 5.07211583 -4 4 C-2.68 2.68 -1.36 1.36 0 0 Z " fill="#45DAD9" transform="translate(75,55)"/>
<path d="M0 0 C0.99 0.33 1.98 0.66 3 1 C3.33 5.29 3.66 9.58 4 14 C3.34 14 2.68 14 2 14 C1.34 9.38 0.68 4.76 0 0 Z " fill="#61D5DC" transform="translate(87,56)"/>
<path d="M0 0 C0.99 0.33 1.98 0.66 3 1 C3 3.97 3 6.94 3 10 C0 8 0 8 -0.75 4.4375 C-0.8325 3.303125 -0.915 2.16875 -1 1 C-0.67 0.67 -0.34 0.34 0 0 Z " fill="#CCE7A0" transform="translate(70,40)"/>
<path d="M0 0 C2.97 0.33 5.94 0.66 9 1 C8.67 1.99 8.34 2.98 8 4 C6.02 4 4.04 4 2 4 C2 3.01 2 2.02 2 1 C1.34 0.67 0.68 0.34 0 0 Z " fill="#50AD6F" transform="translate(55,61)"/>
<path d="M0 0 C0.33 0.99 0.66 1.98 1 3 C-1.31 3.33 -3.62 3.66 -6 4 C-6.33 3.01 -6.66 2.02 -7 1 C-4.53721199 -0.231394 -2.7204945 -0.07159196 0 0 Z " fill="#16826A" transform="translate(64,72)"/>
<path d="M0 0 C0.99 0 1.98 0 3 0 C2.1875 3.4375 2.1875 3.4375 1 7 C0.01 7.33 -0.98 7.66 -2 8 C-2 6.68 -2 5.36 -2 4 C-1.34 4 -0.68 4 0 4 C0 2.68 0 1.36 0 0 Z " fill="#FED778" transform="translate(85,102)"/>
<path d="M0 0 C2.64 0 5.28 0 8 0 C7.67 0.99 7.34 1.98 7 3 C4.69 3 2.38 3 0 3 C0 2.01 0 1.02 0 0 Z " fill="#329065" transform="translate(54,65)"/>
<path d="M0 0 C2.31 0.33 4.62 0.66 7 1 C7.33 2.32 7.66 3.64 8 5 C2.25 3.375 2.25 3.375 0 0 Z " fill="#BEE27E" transform="translate(41,59)"/>
<path d="M0 0 C1.98 0.66 3.96 1.32 6 2 C5.01 2.99 4.02 3.98 3 5 C3.33 5.99 3.66 6.98 4 8 C2.68 7.67 1.36 7.34 0 7 C0 4.66666667 0 2.33333333 0 0 Z " fill="#D2EDB8" transform="translate(64,45)"/>
<path d="M0 0 C0.66 0.33 1.32 0.66 2 1 C-0.97 3.64 -3.94 6.28 -7 9 C-7.66 8.67 -8.32 8.34 -9 8 C-6.03 5.36 -3.06 2.72 0 0 Z " fill="#097262" transform="translate(79,76)"/>
<path d="M0 0 C2.91517292 1.07401108 4.77810176 1.77810176 7 4 C4.03 4 1.06 4 -2 4 C-1.34 2.68 -0.68 1.36 0 0 Z " fill="#48AD76" transform="translate(61,55)"/>
<path d="M0 0 C2.625 -0.1875 2.625 -0.1875 5 0 C3.515 2.475 3.515 2.475 2 5 C0.68 4.34 -0.64 3.68 -2 3 C-1.34 2.01 -0.68 1.02 0 0 Z " fill="#A4D662" transform="translate(52,51)"/>
<path d="M0 0 C2.475 0.495 2.475 0.495 5 1 C5 2.98 5 4.96 5 7 C3.29115995 5.37660195 1.62553283 3.70680947 0 2 C0 1.34 0 0.68 0 0 Z " fill="#017E75" transform="translate(79,61)"/>
<path d="M0 0 C2.475 0.495 2.475 0.495 5 1 C5 1.99 5 2.98 5 4 C3.35 4 1.7 4 0 4 C0 2.68 0 1.36 0 0 Z " fill="#77C169" transform="translate(49,68)"/>
<path d="M0 0 C2.33944736 0.28730055 4.6739143 0.61936779 7 1 C5.68 1.99 4.36 2.98 3 4 C3.33 4.66 3.66 5.32 4 6 C2.0625 5.1875 2.0625 5.1875 0 4 C-0.33 3.01 -0.66 2.02 -1 1 C-0.67 0.67 -0.34 0.34 0 0 Z " fill="#EEF8AA" transform="translate(45,48)"/>
<path d="M0 0 C-1.24546405 3.73639216 -2.63404953 4.18756513 -6 6 C-5.625 3.5625 -5.625 3.5625 -5 1 C-3 0 -3 0 0 0 Z " fill="#5864A8" transform="translate(94,89)"/>
<path d="M0 0 C0.66 0.33 1.32 0.66 2 1 C1.34 1.66 0.68 2.32 0 3 C1.32 3.66 2.64 4.32 4 5 C1.69 5 -0.62 5 -3 5 C-3.33 4.01 -3.66 3.02 -4 2 C-2.125 0.9375 -2.125 0.9375 0 0 Z " fill="#C8E5D1" transform="translate(69,83)"/>
<path d="M0 0 C0.33 0 0.66 0 1 0 C1.33 2.97 1.66 5.94 2 9 C0.02 8.34 -1.96 7.68 -4 7 C-2.68 6.34 -1.36 5.68 0 5 C0 3.35 0 1.7 0 0 Z " fill="#BE8CD6" transform="translate(109,72)"/>
<path d="M0 0 C1.65 0 3.3 0 5 0 C5.33 0.99 5.66 1.98 6 3 C4.02 3.33 2.04 3.66 0 4 C0 2.68 0 1.36 0 0 Z " fill="#18967E" transform="translate(67,61)"/>
<path d="M0 0 C2 3 2 3 3 5 C1.02 5.33 -0.96 5.66 -3 6 C-2.01 4.02 -1.02 2.04 0 0 Z " fill="#FDC7B7" transform="translate(73,102)"/>
<path d="M0 0 C1.65 0 3.3 0 5 0 C4.67 1.32 4.34 2.64 4 4 C2.68 3.34 1.36 2.68 0 2 C0 1.34 0 0.68 0 0 Z " fill="#22438F" transform="translate(83,92)"/>
<path d="M0 0 C2.9719385 1.12451727 5.33440687 2.22293791 8 4 C7.67 4.66 7.34 5.32 7 6 C3.535 4.02 3.535 4.02 0 2 C0 1.34 0 0.68 0 0 Z " fill="#0B7866" transform="translate(77,55)"/>
<path d="M0 0 C0.66 0 1.32 0 2 0 C3.0625 2.375 3.0625 2.375 4 5 C3.67 5.66 3.34 6.32 3 7 C2.01 7 1.02 7 0 7 C0 4.69 0 2.38 0 0 Z " fill="#6FC57A" transform="translate(57,51)"/>
<path d="M0 0 C2.625 1.3125 2.625 1.3125 5 3 C5 3.66 5 4.32 5 5 C1.73045798 4.43628586 0.17424117 3.50037734 -2 1 C-1.34 0.67 -0.68 0.34 0 0 Z " fill="#1F9678" transform="translate(81,54)"/>
</svg>
